<mxfile host="app.diagrams.net" modified="2022-12-26T15:40:11.586Z" agent="5.0 (Windows NT 10.0; Win64; x64) AppleWebKit/537.36 (KHTML, like Gecko) Chrome/108.0.0.0 Safari/537.36 Edg/108.0.1462.54" version="20.6.2" etag="xAvovbpIXjrj970BmkOG" type="github">
  <diagram id="8g1f85qSLFJPqVeH53eo" name="第 1 页">
    <mxGraphModel dx="484" dy="309" grid="1" gridSize="10" guides="1" tooltips="1" connect="1" arrows="1" fold="1" page="1" pageScale="1" pageWidth="827" pageHeight="1169" math="1" shadow="0">
      <root>
        <mxCell id="0" />
        <mxCell id="1" parent="0" />
        <mxCell id="ApVP2FGr331HEArGf7rF-1" value="" style="sketch=0;pointerEvents=1;shadow=0;dashed=0;html=1;strokeColor=#6c8ebf;fillColor=#dae8fc;labelPosition=center;verticalLabelPosition=bottom;verticalAlign=top;outlineConnect=0;align=center;shape=mxgraph.office.devices.video_camera;rotation=-45;" vertex="1" parent="1">
          <mxGeometry x="180" y="280" width="52" height="25" as="geometry" />
        </mxCell>
        <mxCell id="ApVP2FGr331HEArGf7rF-2" value="" style="html=1;verticalLabelPosition=bottom;align=center;labelBackgroundColor=#ffffff;verticalAlign=top;strokeWidth=1;shadow=0;shape=mxgraph.ios7.icons.box;gradientColor=#66B2FF;gradientDirection=east;" vertex="1" parent="1">
          <mxGeometry x="280" y="150" width="90" height="80" as="geometry" />
        </mxCell>
        <mxCell id="ApVP2FGr331HEArGf7rF-3" value="" style="endArrow=classic;html=1;rounded=0;shadow=0;strokeColor=#808080;startArrow=none;" edge="1" parent="1" source="ApVP2FGr331HEArGf7rF-8">
          <mxGeometry width="50" height="50" relative="1" as="geometry">
            <mxPoint x="230" y="270" as="sourcePoint" />
            <mxPoint x="420" y="90" as="targetPoint" />
          </mxGeometry>
        </mxCell>
        <mxCell id="ApVP2FGr331HEArGf7rF-4" value="&lt;font face=&quot;Georgia&quot; style=&quot;font-size: 11px;&quot;&gt;Ray&lt;/font&gt;" style="edgeLabel;html=1;align=center;verticalAlign=middle;resizable=0;points=[];" vertex="1" connectable="0" parent="ApVP2FGr331HEArGf7rF-3">
          <mxGeometry x="0.91" y="-2" relative="1" as="geometry">
            <mxPoint x="-33" as="offset" />
          </mxGeometry>
        </mxCell>
        <mxCell id="ApVP2FGr331HEArGf7rF-5" value="" style="ellipse;" vertex="1" parent="1">
          <mxGeometry x="240" y="250" width="10" height="10" as="geometry" />
        </mxCell>
        <mxCell id="ApVP2FGr331HEArGf7rF-6" value="" style="endArrow=none;html=1;rounded=0;shadow=0;strokeColor=#808080;" edge="1" parent="1" target="ApVP2FGr331HEArGf7rF-5">
          <mxGeometry width="50" height="50" relative="1" as="geometry">
            <mxPoint x="230" y="270" as="sourcePoint" />
            <mxPoint x="420" y="90" as="targetPoint" />
          </mxGeometry>
        </mxCell>
        <mxCell id="ApVP2FGr331HEArGf7rF-8" value="" style="ellipse;" vertex="1" parent="1">
          <mxGeometry x="280" y="210" width="10" height="10" as="geometry" />
        </mxCell>
        <mxCell id="ApVP2FGr331HEArGf7rF-9" value="" style="endArrow=none;html=1;rounded=0;shadow=0;strokeColor=#808080;startArrow=none;" edge="1" parent="1" source="ApVP2FGr331HEArGf7rF-5" target="ApVP2FGr331HEArGf7rF-8">
          <mxGeometry width="50" height="50" relative="1" as="geometry">
            <mxPoint x="248.6409999634816" y="251.5731765049585" as="sourcePoint" />
            <mxPoint x="420" y="90" as="targetPoint" />
          </mxGeometry>
        </mxCell>
        <mxCell id="ApVP2FGr331HEArGf7rF-11" value="" style="ellipse;" vertex="1" parent="1">
          <mxGeometry x="390" y="110" width="10" height="10" as="geometry" />
        </mxCell>
        <mxCell id="ApVP2FGr331HEArGf7rF-14" value="&lt;p style=&quot;line-height: 100%;&quot;&gt;&lt;font face=&quot;Georgia&quot; style=&quot;font-size: 11px;&quot;&gt;`t_1`&lt;/font&gt;&lt;/p&gt;" style="text;html=1;align=center;verticalAlign=middle;resizable=0;points=[];autosize=1;strokeColor=none;fillColor=none;fontSize=2;" vertex="1" parent="1">
          <mxGeometry x="240" y="240" width="50" height="30" as="geometry" />
        </mxCell>
        <mxCell id="ApVP2FGr331HEArGf7rF-15" value="&lt;font style=&quot;font-size: 5px;&quot;&gt;&lt;br&gt;&lt;/font&gt;" style="text;html=1;align=center;verticalAlign=middle;resizable=0;points=[];autosize=1;strokeColor=none;fillColor=none;" vertex="1" parent="1">
          <mxGeometry x="404" y="110" width="20" height="30" as="geometry" />
        </mxCell>
        <mxCell id="ApVP2FGr331HEArGf7rF-16" value="&lt;font face=&quot;Georgia&quot; style=&quot;font-size: 11px;&quot;&gt;`t_n`&lt;/font&gt;" style="text;html=1;align=center;verticalAlign=middle;resizable=0;points=[];autosize=1;strokeColor=none;fillColor=none;fontSize=2;" vertex="1" parent="1">
          <mxGeometry x="389" y="100" width="50" height="30" as="geometry" />
        </mxCell>
        <mxCell id="ApVP2FGr331HEArGf7rF-18" value="&lt;font face=&quot;Times New Roman&quot;&gt;`\Gamma_1\sigma_1c_1`&lt;/font&gt;" style="text;html=1;align=center;verticalAlign=middle;resizable=0;points=[];autosize=1;strokeColor=none;fillColor=none;fontSize=11;fontFamily=Georgia;" vertex="1" parent="1">
          <mxGeometry x="232" y="250" width="150" height="30" as="geometry" />
        </mxCell>
        <mxCell id="ApVP2FGr331HEArGf7rF-19" value="&lt;font face=&quot;Times New Roman&quot;&gt;`\Gamma_n\sigma_n c_n`&lt;/font&gt;" style="text;html=1;align=center;verticalAlign=middle;resizable=0;points=[];autosize=1;strokeColor=none;fillColor=none;fontSize=11;fontFamily=Georgia;" vertex="1" parent="1">
          <mxGeometry x="370" y="110" width="150" height="30" as="geometry" />
        </mxCell>
      </root>
    </mxGraphModel>
  </diagram>
</mxfile>
